<svg version="1.1" xmlns="http://www.w3.org/2000/svg" xmlns:xlink="http://www.w3.org/1999/xlink" x="0px" y="0px"
	 width="664.376px" height="168.059px" viewBox="0 0 664.376 168.059" enable-background="new 0 0 664.376 168.059"
	 xml:space="preserve">
<g>
	<path fill-rule="evenodd" clip-rule="evenodd" fill="#FFFFFF" d="M490.081,0c0.24,0,0.479,0,0.72,0
		c0.79,0.502,3.244-0.037,3.84,0.96c0.333,0.556,0,3.834,0,5.52c0,9.642,0.001,19.191,0,28.08c0,4.137-0.38,7.836,0.48,10.8
		c4.431,0.867,9.776,0.48,14.88,0.48c5.337,0,10.604-0.193,15.36,0.24c-0.156,4.804,0.314,10.235-0.24,14.64
		c-7.398,0-15.375,0-22.561,0c-2.448,0-5.056-0.38-7.199,0.48c-1.084,1.417-0.721,3.296-0.721,5.04c0,9.713,0.001,19.547,0,29.04
		c0,4.031-0.387,8.055,0.48,11.28c2.15,0.86,4.666,0.479,7.2,0.479c7.746,0,16.006-0.194,23.04,0.24
		c-0.285,4.755,0.592,10.672-0.48,14.64c-5.622,0-11.582,0-17.52,0c-6.043,0-12.378,0.737-17.28-0.239
		c-3.808-0.76-8.206-4.57-9.601-7.921c-2.049-4.927-1.439-11.865-1.439-18.96c0-30.394-0.194-66.446,0.24-94.32
		C482.346-0.215,487.022,0.701,490.081,0z"/>
	<path fill-rule="evenodd" clip-rule="evenodd" fill="#FFFFFF" d="M0,121.2c0-4.64,0-9.28,0-13.92
		c14.883-0.718,31.438,0.237,46.32-0.48c0.923-3.896,0.5-10.353,0.24-14.64c-2.512-0.867-5.348-0.48-8.16-0.48
		c-2.658,0-5.583,0-8.4,0c-5.71,0-12.026,0.781-17.04,0c-0.762-0.118-1.471-0.633-2.4-0.96C9.639,90.396,8.662,90.368,7.92,90
		c-0.179-0.089-0.31-0.652-0.48-0.72c-0.907-0.36-0.836-0.207-1.68-0.96C2.783,85.665,0.746,82.291,0,77.04c0-5.36,0-10.72,0-16.08
		c0.511-3.009,1.429-5.611,2.4-8.16c1.274-0.804,1.673-2.332,2.88-3.36c6.397-5.446,20.252-3.6,32.88-3.6c4.109,0,8.212,0,12,0
		c4.281,0,8.357-0.387,11.76,0.48c0.27,4.2,0.676,10.588-0.24,14.4c-11.321,0-23.209,0-34.32,0c-3.755,0-7.58-0.394-11.04,0.48
		c-1.174,1.57-0.72,4.867-0.72,7.68c0,2.903-0.512,6.061,0.96,7.44c11.03,0.649,23.501-0.142,34.56,0.48
		c1.952,1.087,3.879,2.2,5.76,3.36c1.55,1.97,3.181,3.859,4.32,6.24c-0.024,1.6,0.782,3.09,0.96,4.8
		c0.52,4.992,0.336,10.987,0,15.84c-0.324,4.669-2.299,8.978-4.8,11.28c-1.393,1.282-3.851,2.832-6,3.36
		c-3.563,0.875-8.56,0.239-12.72,0.239c-11.907,0-24.593,0.691-36,0C1.836,121.871,0.457,122.374,0,121.2z"/>
	<path fill-rule="evenodd" clip-rule="evenodd" fill="#FFFFFF" d="M78,45.84c4.804,0.156,10.235-0.314,14.64,0.24
		c0.12,15.033,0.113,32.734,0.24,48.72c0.032,4.065-0.58,8.088,0.24,11.761c1.934,0.846,4.717,0.479,7.44,0.479
		c2.569,0,5.362,0.189,7.44-0.24c0.869-2.336,0.48-4.948,0.48-7.439c0-17.32-0.198-36.273,0.24-53.521
		c4.97,0.15,10.546-0.306,15.12,0.24c0.159,20.161-0.319,40.959,0.24,60.72c4.415,0.405,10.463,0.391,14.88,0
		c1.046-3.269,0.29-6.919,0.24-10.319c-0.248-16.757,0.475-34.396,0.24-50.641c4.963,0.157,10.555-0.315,15.12,0.24
		c0.438,22.966,0.24,47.57,0.24,71.28c0,1.28,0.401,2.899-0.48,4.08c-0.491,0.873-2.542,0.479-3.84,0.479
		c-14.782,0-30.417,0-45.84,0c-5.755,0-12.029,0.868-16.32-0.239c-5.313-1.372-8.938-6.49-10.56-11.28
		c-0.391-20.665-0.402-43.945,0-63.84C77.74,46.22,77.721,45.88,78,45.84z"/>
	<path fill-rule="evenodd" clip-rule="evenodd" fill="#FFFFFF" d="M231.84,91.44c-14.801,0.719-31.279-0.239-46.08,0.479
		c-0.617,1.788-0.24,4.441-0.24,7.2c0,2.551-0.227,5.3,0,7.2c1.409,1.195,3.571,0.72,5.28,0.72c13.104,0,27.682,0,41.04,0
		c0.384,4.357,0.406,10.287,0,14.641c-11.301,0.433-25.951,0.239-38.64,0.239c-4.52,0-9.342,0.613-12.72-0.239
		c-2.262-0.571-4.755-2.284-6.24-3.841c-2.041-2.138-3.007-5.138-4.08-7.92c0-12.456,0-25.599,0-38.4
		c0-6.341-0.523-13.143,1.44-17.28c0.128-0.271,0.517-0.382,0.72-0.72c0.787-1.316,1.998-3.186,3.36-4.32
		c1.814-1.51,4.177-2.134,6.72-3.12c0.271-0.105,0.486-0.206,0.72-0.24c5.043-0.733,11.868,0,18,0c6.153,0,12.846-0.7,17.76,0
		c0.532,0.076,1.055,0.558,1.68,0.72c0.728,0.189,1.696,0.042,2.16,0.24c0.555,0.236,1.343,1.065,1.92,1.44
		c1.974,1.281,3.689,2.996,5.28,4.8c1.541,3.069,2.116,7.631,2.16,12.48c0.013,1.441,0.04,2.923,0,4.32
		C231.909,75.869,232.542,84.211,231.84,91.44z M194.4,60.72c-3.585,0.008-7.066-0.486-8.64,0.96
		c-0.275,4.144-0.662,10.4,0.24,14.16c1.912,1.113,4.406,0.506,6.96,0.48c7.805-0.082,16.824,0.097,23.04,0
		c0.435-3.902,0.398-11.452,0-15.36C209.444,60.538,201.33,60.705,194.4,60.72z"/>
	<path fill-rule="evenodd" clip-rule="evenodd" fill="#FFFFFF" d="M308.881,91.44c-14.721,0.719-31.119-0.239-45.84,0.479
		c-0.844,1.871-0.48,4.552-0.48,7.2c0,2.568-0.189,5.361,0.24,7.44c3.546,0.867,7.427,0.479,11.28,0.479
		c11.348,0,23.834-0.197,35.04,0.24c0,4.8,0,9.6,0,14.4c-11.313,0.433-25.961,0.239-38.64,0.239c-4.354,0-9.144,0.565-12.48-0.239
		c-5.486-1.325-8.558-5.943-10.32-10.801c0-17.84,0-35.68,0-53.52c2.269-5.92,6.172-10.63,12.96-11.521c5.289-0.693,11.842,0,18,0
		c6.22,0,12.967-0.731,17.76,0c0.374,0.057,2.09,0.655,2.88,0.96c3.696,1.426,6.829,4.363,8.4,7.92
		C311.13,62.53,308.285,79.435,308.881,91.44z M293.761,64.8c-0.079-3.763-0.244-3.926-3.6-4.08c-6.847-0.315-12.384,0-18.48,0
		c-2.492,0-7.021-0.324-8.16,0.48c-1.889,1.333-0.726,12.371-0.72,14.64c2.119,1.083,4.773,0.72,7.44,0.72
		c8.311,0,17.015,0.294,23.28-0.48C293.896,72.692,293.833,68.252,293.761,64.8z"/>
	<path fill-rule="evenodd" clip-rule="evenodd" fill="#FFFFFF" d="M325.44,45.84c11.267,0,25.088,0,37.2,0
		c4.292,0,8.612-0.494,12,0.24c5.924,1.284,9.268,6.114,11.521,11.04c-0.063,17.382,0.406,35.743-0.24,53.76
		c-0.295,2.049-1.099,3.026-2.16,4.561c-0.404,0.585-0.588,1.504-0.96,1.92c-0.441,0.493-1.511,0.885-2.16,1.439
		c-1.512,1.291-1.373,1.283-3.36,2.16c-3.87,1.71-12.938,0.96-18.96,0.96c-6.265,0-12.469-0.194-17.76,0.24
		c-0.865,3.465-0.479,7.291-0.479,11.04c0,11.187,0,23.161,0,34.561c-4.417,0.39-10.466,0.404-14.88,0
		c-0.588-2.149-0.404-4.535-0.48-6.721c-0.601-17.374,0-35.754,0-53.52c0-20.469,0.016-40.944,0-60.96
		C324.855,46.214,325.095,45.975,325.44,45.84z M371.28,101.04c0.001-9.455,0-19.466,0-28.8c0.001-3.141,0.595-9.474-0.72-10.8
		c-1.013-1.022-4.462-0.72-6.72-0.72c-2.308,0-5.458,0-7.44,0c-5.552,0-10.424-0.796-15.12,0c-0.295,0.05-0.535,0.306-0.72,0.48
		c-0.845,2.492-0.479,7.596-0.479,11.28c-0.001,11.765-0.193,24.108,0.239,34.32c7.165,0.435,15.884,0.24,23.28,0.24
		c2.489,0,5.265,0.548,7.2-0.72C371.684,104.74,371.28,102.709,371.28,101.04z"/>
	<path fill-rule="evenodd" clip-rule="evenodd" fill="#FFFFFF" d="M463.681,45.84c0,4.96,0,9.92,0,14.88
		c-15.12,0.16-30.879-0.319-45.6,0.24c-0.789,4.072-0.789,11.289,0,15.36c2.649,0.575,5.411,0.24,8.16,0.24
		c5.805,0,11.594,0,17.76,0c2.824,0,6.182-0.308,8.64,0.24c0.81,0.18,3.985,1.854,5.04,2.64c1.439,1.072,4.26,4.385,5.04,6.24
		c0.205,0.487,0.048,1.331,0.24,1.921c0.205,0.628,0.646,0.98,0.72,1.439c0.471,2.932,0,6.788,0,10.32
		c0,5.529,0.38,10.458-1.2,14.16c-0.538,1.261-2.543,3.841-3.84,5.04c-1.071,0.99-4.707,3.115-6,3.359c-3.766,0.713-8.473,0-12.72,0
		c-12.425,0-25.405,0.199-37.68-0.239c-0.457-4.866-0.147-10.189,0-14.641c15.121-0.158,30.878,0.318,45.6-0.24
		c0.633-3.969,0.055-9.354,0.24-14.64c-2.357-0.863-5.204-0.48-7.92-0.48c-2.726,0-5.578,0-8.4,0c-5.779,0-11.924,0.712-16.8,0
		c-2.64-0.385-6.932-2.392-8.641-4.079c-1.344-1.328-2.048-3.294-3.119-4.8c-1.34-3.1-0.931-7.433-1.2-12
		c-0.391-6.61-0.5-13.058,1.92-17.28c1.225-2.137,3.07-3.817,5.28-5.28c0.699-0.463,1.396-1.233,1.92-1.44
		c0.981-0.387,2.591-0.12,3.359-0.96C430.881,45.84,447.281,45.84,463.681,45.84z"/>
	<path fill-rule="evenodd" clip-rule="evenodd" fill="#FFFFFF" d="M602.642,91.2c-3.262,0.869-7.229,0.479-11.28,0.479
		c-11.187,0-23.161,0-34.561,0c-0.918,3.969-0.508,10.523-0.239,14.881c3.545,0.867,7.427,0.479,11.279,0.479
		c11.348,0,23.835-0.197,35.04,0.24c-0.286,5.198,0.521,10.156-0.479,14.4c-12.797,0.55-23.486,0.239-36.721,0.239
		c-4.587,0-9.977,0.769-14.159-0.239c-1.898-0.458-5.122-2.428-6.48-3.841c-3.641-3.785-3.84-8.048-3.84-15.359
		c-0.001-10.713,0.324-23.993,0-34.8c-0.021-0.681-0.313-1.218-0.24-1.92c0.04-0.383,0.481-0.999,0.48-1.44
		c-0.005-1.165-0.499-2.254-0.48-3.36c0.011-0.646,0.374-1.283,0.48-2.16c0.104-0.86-0.145-1.858,0-2.4
		c0.217-0.818,1.158-1.98,1.68-2.88c1.332-2.297,2.346-3.828,4.56-5.28c0.312-0.204,0.969-0.188,1.44-0.48
		c0.393-0.244,0.813-0.901,0.96-0.96c1.1-0.439,2.801-0.057,3.6-0.96c5.771,0,11.863,0,18.001,0c7.554,0,15.834-0.61,21.359,0.96
		c3.246,2.044,6.128,3.576,7.92,6.96c2.972,5.609,1.681,14.431,1.681,23.04C602.641,81.889,602.871,86.84,602.642,91.2z
		 M557.041,61.2c-0.644,1.839-0.637,5.061-0.72,7.68c-0.087,2.723-0.122,5.557,0.479,7.2c1.925,0.509,4.295,0.245,6.721,0.24
		c2.523-0.005,5.241,0,7.92,0c5.368,0,11.043,0.385,15.6-0.48c0.913-3.655,0.512-9.878,0.24-13.92c-1.521-1.621-4.06-1.2-6.48-1.2
		c-7.558,0-15.889,0-23.04,0C557.478,60.836,557.217,60.976,557.041,61.2z"/>
	<path fill-rule="evenodd" clip-rule="evenodd" fill="#FFFFFF" d="M664.321,46.08c-0.198,4.786,0.377,10.996-0.24,14.64
		c-9.841,0.159-20.318-0.319-29.76,0.24c-1.355,1.723-0.651,3.863-0.72,6c-0.101,3.126-0.276,6.413-0.24,9.84
		c0.033,3.197-0.162,6.577,0,9.6c0.075,1.409,0.453,2.764,0.479,4.08c0.044,2.094-0.505,4.354-0.479,6.479
		c0.095,7.985,0.266,16.816-0.24,24.96c-4.88,0-9.76,0-14.64,0c-0.395-13.248-0.24-31.233-0.24-46.8
		c0-7.584-0.895-16.521,1.68-21.36c0.77-1.446,2.679-3.303,4.08-4.56c0.551-0.494,2.5-1.976,3.601-2.4
		c0.961-0.37,2.118-0.32,3.12-0.72c0.264-0.105,0.491-0.208,0.72-0.24c4.881-0.693,10.825,0,16.56,0
		C653.525,45.84,659.123,45.643,664.321,46.08z"/>
</g>
</svg>
